;PTH Drill file created by EasyEDA 
M48
METRIC,LZ,000.000
;Holesize 1 = 0.891 METRIC
T01C0.891
;Holesize 2 = 0.901 METRIC
T02C0.901
;Holesize 3 = 0.914 METRIC
T03C0.914
;Holesize 4 = 0.915 METRIC
T04C0.915
;Holesize 5 = 1.000 METRIC
T05C1.000
;Holesize 6 = 1.083 METRIC
T06C1.083
;Holesize 7 = 1.501 METRIC
T07C1.501
%
G05
G90
T01
X+007366Y+037846
X+007366Y+045466
X+032512Y+011430
X+040132Y+011430
X+029464Y+014478
X+037084Y+014478
X+009906Y+045466
X+009906Y+037846
X+002286Y+045466
X+002286Y+037846
X+004826Y+037846
X+004826Y+045466
X+038862Y+041910
X+038862Y+039370
X+038862Y+036830
X+041402Y+041910
X+041402Y+039370
X+041402Y+036830
X+043942Y+041910
X+043942Y+039370
X+043942Y+036830
X+046482Y+041910
X+046482Y+039370
X+046482Y+036830
X+051562Y+041910
X+051562Y+039370
X+051562Y+036830
X+054102Y+041910
X+054102Y+039370
X+054102Y+036830
X+056642Y+041910
X+056642Y+039370
X+056642Y+036830
X+059182Y+041910
X+059182Y+039370
X+059182Y+036830
X+064262Y+041910
X+064262Y+039370
X+064262Y+036830
X+066802Y+041910
X+066802Y+039370
X+066802Y+036830
X+069342Y+041910
X+069342Y+039370
X+069342Y+036830
X+071882Y+041910
X+071882Y+039370
X+071882Y+036830
X+071882Y+027686
X+071882Y+030226
X+071882Y+032766
X+069342Y+027686
X+069342Y+030226
X+069342Y+032766
X+066802Y+027686
X+066802Y+030226
X+066802Y+032766
X+064262Y+027686
X+064262Y+030226
X+064262Y+032766
X+059182Y+027686
X+059182Y+030226
X+059182Y+032766
X+056642Y+027686
X+056642Y+030226
X+056642Y+032766
X+054102Y+027686
X+054102Y+030226
X+054102Y+032766
X+051562Y+027686
X+051562Y+030226
X+051562Y+032766
X+046482Y+027686
X+046482Y+030226
X+046482Y+032766
X+043942Y+027686
X+043942Y+030226
X+043942Y+032766
X+041402Y+027686
X+041402Y+030226
X+041402Y+032766
X+038862Y+027686
X+038862Y+030226
X+038862Y+032766
T02
X+081280Y+030480
X+078740Y+030480
X+081280Y+033020
X+078740Y+033020
X+081280Y+035560
X+078740Y+035560
X+081280Y+038100
X+078740Y+038100
X+081280Y+040640
X+078740Y+040640
X+081280Y+043180
X+078740Y+043180
X+081280Y+045720
X+078740Y+045720
X+081280Y+048260
X+078740Y+048260
X+081280Y+010160
X+078740Y+010160
X+081280Y+012700
X+078740Y+012700
X+081280Y+015240
X+078740Y+015240
X+081280Y+017780
X+078740Y+017780
X+081280Y+020320
X+078740Y+020320
X+081280Y+022860
X+078740Y+022860
X+081280Y+025400
X+078740Y+025400
X+081280Y+027940
X+078740Y+027940
X+078740Y+007620
X+081280Y+007620
X+078740Y+050800
X+081280Y+050800
X+073916Y+007620G85X+073911Y+007620
X+071376Y+007620G85X+071371Y+007620
X+073916Y+010160G85X+073911Y+010160
X+071376Y+010160G85X+071371Y+010160
X+073916Y+012700G85X+073911Y+012700
X+071376Y+012700G85X+071371Y+012700
X+073916Y+015240G85X+073911Y+015240
X+071376Y+015240G85X+071371Y+015240
X+064770Y+009906
X+062270Y+009906
T03
X+025400Y+009235
X+022860Y+009235
X+020320Y+009235
X+017780Y+009235
X+025400Y+011775
X+022860Y+011775
X+020320Y+011775
X+040640Y+007620
X+038100Y+007620
X+035560Y+007620
T04
X+033274Y+039370
X+033274Y+035852
X+033274Y+026670
X+033274Y+030187
T05
X+013462Y+042672
X+016002Y+042672
X+018542Y+042672
X+021082Y+042672
X+023622Y+042672
X+026162Y+042672
X+008636Y+050800
X+006096Y+050800
X+060960Y+002540
X+063500Y+002540
X+066040Y+002540
X+068580Y+002540
X+071120Y+002540
X+073660Y+002540
X+076200Y+002540
X+058420Y+002540
X+055880Y+050800
X+058420Y+050800
X+060960Y+050800
X+063500Y+050800
X+066040Y+050800
X+068580Y+050800
X+071120Y+050800
X+053340Y+050800
X+038100Y+002540
X+040640Y+002540
X+043180Y+002540
X+045720Y+002540
X+048260Y+002540
X+050800Y+002540
X+053340Y+002540
X+035560Y+002540
X+033020Y+050800
X+035560Y+050800
X+038100Y+050800
X+040640Y+050800
X+043180Y+050800
X+045720Y+050800
X+048260Y+050800
X+030480Y+050800
X+011176Y+050800
X+013716Y+050800
X+016256Y+050800
X+018796Y+050800
X+021336Y+050800
X+023876Y+050800
X+026416Y+050800
X+017780Y+002540
X+020320Y+002540
X+022860Y+002540
X+025400Y+002540
X+027940Y+002540
X+030480Y+002540
X+015240Y+002540
X+012700Y+002540
X+017780Y+011775
X+037338Y+047498
X+034798Y+047498
X+032258Y+047498
X+029718Y+047498
X+027178Y+047498
X+010922Y+016809
X+005588Y+035052
X+008128Y+035052
X+003302Y+016764
X+008128Y+031496
X+005588Y+031496
T06
X+003556Y+050800
T07
X+007112Y+006858
X+007112Y+011938
X+007112Y+021590
X+007112Y+026670
M30
